<svg width="197" height="386" viewBox="0 0 197 386" fill="none" xmlns="http://www.w3.org/2000/svg">
<rect x="0.5" y="0.5" width="195.711" height="384.711" rx="4.5" stroke="#8A38F5" stroke-dasharray="10 5"/>
<rect width="156.711" height="156.711" rx="78.3555" transform="matrix(-1 0 0 1 176.711 20)" fill="black" fill-opacity="0.25"/>
<rect width="112.924" height="112.924" rx="56.462" transform="matrix(-1 0 0 1 154.817 41.8935)" fill="black" fill-opacity="0.25"/>
<rect width="0.608326" height="7.09713" transform="matrix(0.707107 0.707107 0.707107 -0.707107 93.2197 58.435)" fill="#D9D9D9" fill-opacity="0.5"/>
<rect width="0.608326" height="7.09713" transform="matrix(0.707107 -0.707107 -0.707107 -0.707107 103.11 58.865)" fill="#D9D9D9" fill-opacity="0.5"/>
<rect width="0.608326" height="7.09713" transform="matrix(-0.707107 -0.707107 -0.707107 0.707107 103.541 138.54)" fill="#D9D9D9" fill-opacity="0.5"/>
<rect width="0.608326" height="7.09713" transform="matrix(-0.707107 0.707107 0.707107 0.707107 93.6499 138.11)" fill="#D9D9D9" fill-opacity="0.5"/>
<rect width="0.608326" height="7.09713" transform="matrix(-0.707107 0.707107 0.707107 0.707107 138.276 93.1703)" fill="#D9D9D9" fill-opacity="0.5"/>
<rect width="0.608326" height="7.09713" transform="matrix(0.707107 0.707107 0.707107 -0.707107 137.846 103.061)" fill="#D9D9D9" fill-opacity="0.5"/>
<rect width="0.608326" height="7.09713" transform="matrix(0.707107 -0.707107 -0.707107 -0.707107 58.1714 103.491)" fill="#D9D9D9" fill-opacity="0.5"/>
<rect width="0.608326" height="7.09713" transform="matrix(-0.707107 -0.707107 -0.707107 0.707107 58.6016 93.6005)" fill="#D9D9D9" fill-opacity="0.5"/>
<rect x="-0.931497" y="0.931497" width="41.9239" height="41.9239" rx="20.9619" transform="matrix(-1 0 0 1 117.525 76.2557)" fill="url(#paint0_radial_80_149)"/>
<rect x="-0.931497" y="0.931497" width="41.9239" height="41.9239" rx="20.9619" transform="matrix(-1 0 0 1 117.525 76.2557)" stroke="#DBDBDB" stroke-width="1.86299"/>
<path d="M98.057 84.2388C97.5122 84.4168 97.0321 84.8484 96.757 85.404C96.6221 85.6737 96.6113 85.7546 96.6113 86.321C96.6113 86.8983 96.6221 86.963 96.7678 87.2651C96.9728 87.6804 97.3827 88.0904 97.7981 88.2954C98.1002 88.4411 98.1649 88.4518 98.7421 88.4518C99.3193 88.4518 99.3841 88.4411 99.6861 88.2954C100.102 88.0904 100.511 87.6804 100.716 87.2651C100.862 86.963 100.873 86.8983 100.873 86.321C100.873 85.7438 100.862 85.6791 100.716 85.377C100.511 84.9617 100.102 84.5517 99.6861 84.3521C99.4056 84.2118 99.2977 84.1903 98.823 84.1795C98.4778 84.1687 98.2027 84.1903 98.057 84.2388Z" fill="#AFADAD"/>
<path d="M104.352 84.3736C103.84 84.5408 103.473 84.762 103.106 85.1288C102.513 85.7222 102.249 86.3696 102.249 87.2381C102.249 88.058 102.491 88.6946 103.025 89.2718C103.603 89.8921 104.32 90.1996 105.194 90.205C106.084 90.205 106.726 89.9461 107.325 89.3473C107.918 88.7539 108.182 88.1066 108.182 87.2381C108.182 86.3696 107.918 85.7222 107.325 85.1288C106.952 84.7566 106.537 84.5085 106.03 84.3574C105.625 84.2388 104.746 84.2442 104.352 84.3736Z" fill="#AFADAD"/>
<path d="M92.63 85.6413C92.0366 85.8895 91.6482 86.3048 91.4594 86.909C91.125 87.9663 91.6536 89.0614 92.6786 89.4498C93.0831 89.5954 93.7197 89.5954 94.1243 89.4498C94.723 89.2232 95.1492 88.7755 95.3434 88.1605C95.6779 87.1032 95.1492 86.0081 94.1243 85.6197C93.6981 85.4633 93.0454 85.4741 92.63 85.6413Z" fill="#AFADAD"/>
<path d="M88.6975 89.0992C88.1796 89.2934 87.7157 89.7681 87.5431 90.2752C87.4136 90.6636 87.4567 91.3918 87.6294 91.7425C87.7966 92.0877 88.1742 92.4653 88.5194 92.6325C88.7514 92.7512 88.8647 92.7674 89.3556 92.7674C89.8465 92.7674 89.9597 92.7512 90.1917 92.6325C90.537 92.4653 90.9146 92.0877 91.0818 91.7425C91.2005 91.5105 91.2166 91.3972 91.2166 90.9063C91.2166 90.4154 91.2005 90.3021 91.0818 90.0702C90.9146 89.7249 90.537 89.3473 90.1917 89.1801C89.9705 89.0668 89.8303 89.0452 89.4095 89.0345C89.0697 89.0237 88.8269 89.0452 88.6975 89.0992Z" fill="#AFADAD"/>
<path d="M98.3374 89.7196C97.0967 89.9084 96.088 90.2105 95.0954 90.6852C93.0185 91.6831 91.8695 92.8969 91.1952 94.8065C90.7097 96.1821 90.5371 97.4767 90.5371 99.7208C90.5371 104.484 91.0927 107.424 92.3335 109.264C92.6247 109.7 93.2397 110.332 93.6443 110.623C94.3402 111.119 95.3813 111.54 96.2822 111.702C96.9726 111.82 97.9221 111.81 98.4507 111.675C100.867 111.06 102.097 108.627 101.294 106.038C101.223 105.8 100.884 105.034 100.549 104.338C99.891 102.979 99.7508 102.618 99.6591 102.051C99.5566 101.415 99.7292 100.848 100.215 100.206C100.511 99.8125 100.965 99.4295 101.903 98.7714C103.414 97.7087 104.018 97.18 104.579 96.441C105.226 95.5887 105.539 94.704 105.539 93.7492C105.539 92.7027 105.221 91.9259 104.492 91.203C103.996 90.7067 103.43 90.3831 102.572 90.0918C101.65 89.7843 101.153 89.7142 99.8479 89.6926C99.1951 89.6818 98.5155 89.6926 98.3374 89.7196Z" fill="#AFADAD"/>
<rect width="156.711" height="156.711" rx="78.3555" transform="matrix(-1 0 0 1 176.711 209)" fill="black" fill-opacity="0.25"/>
<rect width="112.924" height="112.924" rx="56.462" transform="matrix(-1 0 0 1 154.817 230.893)" fill="black" fill-opacity="0.25"/>
<rect width="0.608326" height="7.09713" transform="matrix(0.707107 0.707107 0.707107 -0.707107 93.2197 247.435)" fill="#D9D9D9" fill-opacity="0.5"/>
<rect width="0.608326" height="7.09713" transform="matrix(0.707107 -0.707107 -0.707107 -0.707107 103.11 247.865)" fill="#D9D9D9" fill-opacity="0.5"/>
<rect width="0.608326" height="7.09713" transform="matrix(-0.707107 -0.707107 -0.707107 0.707107 103.541 327.54)" fill="#D9D9D9" fill-opacity="0.5"/>
<rect width="0.608326" height="7.09713" transform="matrix(-0.707107 0.707107 0.707107 0.707107 93.6499 327.11)" fill="#D9D9D9" fill-opacity="0.5"/>
<rect width="0.608326" height="7.09713" transform="matrix(-0.707107 0.707107 0.707107 0.707107 138.276 282.17)" fill="#D9D9D9" fill-opacity="0.5"/>
<rect width="0.608326" height="7.09713" transform="matrix(0.707107 0.707107 0.707107 -0.707107 137.846 292.061)" fill="#D9D9D9" fill-opacity="0.5"/>
<rect width="0.608326" height="7.09713" transform="matrix(0.707107 -0.707107 -0.707107 -0.707107 58.1714 292.491)" fill="#D9D9D9" fill-opacity="0.5"/>
<rect width="0.608326" height="7.09713" transform="matrix(-0.707107 -0.707107 -0.707107 0.707107 58.6016 282.6)" fill="#D9D9D9" fill-opacity="0.5"/>
<g filter="url(#filter0_d_80_149)">
<rect width="43.7869" height="43.7869" rx="21.8934" transform="matrix(-1 0 0 1 130.787 253)" fill="url(#paint1_radial_80_149)"/>
<rect x="-0.931497" y="0.931497" width="41.9239" height="41.9239" rx="20.9619" transform="matrix(-1 0 0 1 128.924 253)" stroke="#DBDBDB" stroke-width="1.86299"/>
<path d="M109.456 260.983C108.911 261.161 108.431 261.593 108.156 262.148C108.021 262.418 108.01 262.499 108.01 263.065C108.01 263.643 108.021 263.707 108.167 264.009C108.372 264.425 108.782 264.835 109.197 265.04C109.499 265.185 109.564 265.196 110.141 265.196C110.718 265.196 110.783 265.185 111.085 265.04C111.5 264.835 111.91 264.425 112.115 264.009C112.261 263.707 112.272 263.643 112.272 263.065C112.272 262.488 112.261 262.423 112.115 262.121C111.91 261.706 111.5 261.296 111.085 261.096C110.805 260.956 110.697 260.935 110.222 260.924C109.877 260.913 109.602 260.935 109.456 260.983Z" fill="#AFADAD"/>
<path d="M115.751 261.118C115.239 261.285 114.872 261.506 114.505 261.873C113.912 262.466 113.647 263.114 113.647 263.982C113.647 264.802 113.89 265.439 114.424 266.016C115.001 266.636 115.719 266.944 116.593 266.949C117.483 266.949 118.125 266.69 118.724 266.092C119.317 265.498 119.581 264.851 119.581 263.982C119.581 263.114 119.317 262.466 118.724 261.873C118.351 261.501 117.936 261.253 117.429 261.102C117.024 260.983 116.145 260.988 115.751 261.118Z" fill="#AFADAD"/>
<path d="M104.029 262.386C103.436 262.634 103.047 263.049 102.858 263.653C102.524 264.711 103.053 265.806 104.077 266.194C104.482 266.34 105.119 266.34 105.523 266.194C106.122 265.967 106.548 265.52 106.742 264.905C107.077 263.847 106.548 262.752 105.523 262.364C105.097 262.208 104.444 262.218 104.029 262.386Z" fill="#AFADAD"/>
<path d="M100.096 265.843C99.5785 266.038 99.1146 266.512 98.942 267.019C98.8125 267.408 98.8557 268.136 99.0283 268.487C99.1955 268.832 99.5731 269.21 99.9184 269.377C100.15 269.495 100.264 269.512 100.755 269.512C101.245 269.512 101.359 269.495 101.591 269.377C101.936 269.21 102.313 268.832 102.481 268.487C102.599 268.255 102.616 268.141 102.616 267.651C102.616 267.16 102.599 267.046 102.481 266.814C102.313 266.469 101.936 266.092 101.591 265.924C101.369 265.811 101.229 265.79 100.808 265.779C100.469 265.768 100.226 265.79 100.096 265.843Z" fill="#AFADAD"/>
<path d="M109.736 266.464C108.496 266.653 107.487 266.955 106.494 267.429C104.417 268.427 103.268 269.641 102.594 271.551C102.109 272.926 101.936 274.221 101.936 276.465C101.936 281.228 102.492 284.168 103.732 286.008C104.024 286.445 104.639 287.076 105.043 287.367C105.739 287.863 106.78 288.284 107.681 288.446C108.372 288.565 109.321 288.554 109.85 288.419C112.266 287.804 113.496 285.371 112.693 282.782C112.622 282.545 112.283 281.779 111.948 281.083C111.29 279.723 111.15 279.362 111.058 278.795C110.956 278.159 111.128 277.593 111.614 276.951C111.91 276.557 112.363 276.174 113.302 275.516C114.813 274.453 115.417 273.924 115.978 273.185C116.625 272.333 116.938 271.448 116.938 270.493C116.938 269.447 116.62 268.67 115.891 267.947C115.395 267.451 114.829 267.127 113.971 266.836C113.049 266.529 112.552 266.458 111.247 266.437C110.594 266.426 109.914 266.437 109.736 266.464Z" fill="#AFADAD"/>
</g>
<defs>
<filter id="filter0_d_80_149" x="72.9995" y="239" width="71.7871" height="71.7869" filterUnits="userSpaceOnUse" color-interpolation-filters="sRGB">
<feFlood flood-opacity="0" result="BackgroundImageFix"/>
<feColorMatrix in="SourceAlpha" type="matrix" values="0 0 0 0 0 0 0 0 0 0 0 0 0 0 0 0 0 0 127 0" result="hardAlpha"/>
<feOffset/>
<feGaussianBlur stdDeviation="7"/>
<feComposite in2="hardAlpha" operator="out"/>
<feColorMatrix type="matrix" values="0 0 0 0 1 0 0 0 0 1 0 0 0 0 1 0 0 0 0.4 0"/>
<feBlend mode="normal" in2="BackgroundImageFix" result="effect1_dropShadow_80_149"/>
<feBlend mode="normal" in="SourceGraphic" in2="effect1_dropShadow_80_149" result="shape"/>
</filter>
<radialGradient id="paint0_radial_80_149" cx="0" cy="0" r="1" gradientUnits="userSpaceOnUse" gradientTransform="translate(21.8934 21.8934) rotate(90) scale(21.8934)">
<stop stop-color="white"/>
<stop offset="1" stop-color="#A8A8A8"/>
</radialGradient>
<radialGradient id="paint1_radial_80_149" cx="0" cy="0" r="1" gradientUnits="userSpaceOnUse" gradientTransform="translate(21.8934 21.8934) rotate(90) scale(21.8934)">
<stop stop-color="white"/>
<stop offset="1" stop-color="#A8A8A8"/>
</radialGradient>
</defs>
</svg>
