<svg width="197" height="386" viewBox="0 0 197 386" fill="none" xmlns="http://www.w3.org/2000/svg">
<rect x="0.5" y="0.5" width="195.711" height="384.711" rx="4.5" stroke="#8A38F5" stroke-dasharray="10 5"/>
<rect x="20" y="20" width="156.711" height="156.711" rx="78.3555" fill="black" fill-opacity="0.25"/>
<rect x="41.8936" y="41.8935" width="112.924" height="112.924" rx="56.462" fill="black" fill-opacity="0.25"/>
<rect x="103.491" y="58.435" width="0.608326" height="7.09713" transform="rotate(135 103.491 58.435)" fill="#D9D9D9" fill-opacity="0.5"/>
<rect x="93.6006" y="58.865" width="0.608326" height="7.09713" transform="rotate(-135 93.6006 58.865)" fill="#D9D9D9" fill-opacity="0.5"/>
<rect x="93.1704" y="138.54" width="0.608326" height="7.09713" transform="rotate(-45 93.1704 138.54)" fill="#D9D9D9" fill-opacity="0.5"/>
<rect x="103.061" y="138.11" width="0.608326" height="7.09713" transform="rotate(45 103.061 138.11)" fill="#D9D9D9" fill-opacity="0.5"/>
<rect x="58.4351" y="93.1703" width="0.608326" height="7.09713" transform="rotate(45 58.4351 93.1703)" fill="#D9D9D9" fill-opacity="0.5"/>
<rect x="58.8647" y="103.061" width="0.608326" height="7.09713" transform="rotate(135 58.8647 103.061)" fill="#D9D9D9" fill-opacity="0.5"/>
<rect x="138.539" y="103.491" width="0.608326" height="7.09713" transform="rotate(-135 138.539 103.491)" fill="#D9D9D9" fill-opacity="0.5"/>
<rect x="138.109" y="93.6005" width="0.608326" height="7.09713" transform="rotate(-45 138.109 93.6005)" fill="#D9D9D9" fill-opacity="0.5"/>
<rect x="-0.931497" y="0.931497" width="41.9239" height="41.9239" rx="20.9619" transform="matrix(-1 0 0 1 117.814 76.2557)" fill="url(#paint0_radial_80_152)"/>
<rect x="-0.931497" y="0.931497" width="41.9239" height="41.9239" rx="20.9619" transform="matrix(-1 0 0 1 117.814 76.2557)" stroke="#DBDBDB" stroke-width="1.86299"/>
<path d="M96.2162 90.9644C95.0726 91.1047 94.1286 91.3043 93.1036 91.6387C90.2068 92.5774 87.3694 94.336 84.6776 96.8551C83.8037 97.6751 83.7012 97.8153 83.7012 98.2145C83.7012 98.6137 83.8037 98.754 84.6776 99.5739C85.9452 100.761 86.8947 101.516 88.2325 102.395C90.6977 104.014 92.9904 104.958 95.488 105.373C96.3403 105.513 98.6815 105.513 99.5338 105.373C101.217 105.092 102.868 104.548 104.491 103.733C106.541 102.708 108.445 101.354 110.344 99.5739C111.218 98.754 111.321 98.6137 111.321 98.2145C111.321 97.8153 111.218 97.6751 110.344 96.8551C107.652 94.336 104.815 92.5774 101.918 91.6387C100.327 91.1209 99.4421 90.9806 97.7267 90.959C96.9984 90.9483 96.3187 90.9537 96.2162 90.9644ZM98.8865 92.75C100.472 93.1923 101.756 94.2119 102.485 95.6036C102.776 96.1701 102.916 96.5692 103.04 97.1842C103.164 97.783 103.126 99.0345 102.97 99.5901C102.533 101.171 101.514 102.46 100.122 103.188C99.1454 103.695 98.4387 103.852 97.3005 103.809C95.9573 103.76 94.9108 103.361 93.8912 102.508C92.9256 101.699 92.2405 100.534 91.9816 99.2449C91.8575 98.6461 91.8953 97.3946 92.0517 96.839C92.6397 94.7028 94.258 93.1708 96.432 92.6853C96.9391 92.572 98.3794 92.6097 98.8865 92.75Z" fill="#AFADAD"/>
<path d="M96.4857 94.2767C96.2645 94.336 95.8761 94.4871 95.6226 94.6111C95.2504 94.7945 95.067 94.9348 94.6516 95.3556C94.2309 95.7709 94.0906 95.9543 93.9072 96.3266C93.5889 96.9631 93.4648 97.5025 93.4648 98.2146C93.4648 98.9267 93.5889 99.4661 93.9072 100.103C94.0906 100.475 94.2309 100.658 94.6516 101.074C95.067 101.494 95.2504 101.635 95.6226 101.818C96.3239 102.169 96.8417 102.277 97.6671 102.25C98.2497 102.228 98.4169 102.201 98.8215 102.061C99.4041 101.856 99.7925 101.624 100.235 101.219C100.65 100.847 100.888 100.523 101.141 100.022C101.325 99.6657 101.546 98.9428 101.492 98.8889C101.481 98.8781 101.373 98.8889 101.26 98.9213C101.141 98.9536 100.834 98.9698 100.58 98.959C100.17 98.9375 100.057 98.9105 99.7062 98.7379C99.2153 98.4951 98.8107 98.0797 98.568 97.5673C98.4115 97.2382 98.4007 97.1789 98.4007 96.5963C98.4007 96.0137 98.4115 95.9543 98.5734 95.6145C98.6705 95.4041 98.8647 95.129 99.0427 94.9456C99.2099 94.773 99.3448 94.6273 99.3448 94.6165C99.3448 94.5842 98.9941 94.4277 98.6812 94.3252C98.1742 94.158 97.0306 94.131 96.4857 94.2767Z" fill="#AFADAD"/>
<rect x="20" y="209" width="156.711" height="156.711" rx="78.3555" fill="black" fill-opacity="0.25"/>
<rect x="41.8936" y="230.893" width="112.924" height="112.924" rx="56.462" fill="black" fill-opacity="0.25"/>
<rect x="103.491" y="247.435" width="0.608326" height="7.09713" transform="rotate(135 103.491 247.435)" fill="#D9D9D9" fill-opacity="0.5"/>
<rect x="93.6006" y="247.865" width="0.608326" height="7.09713" transform="rotate(-135 93.6006 247.865)" fill="#D9D9D9" fill-opacity="0.5"/>
<rect x="93.1699" y="327.54" width="0.608326" height="7.09713" transform="rotate(-45 93.1699 327.54)" fill="#D9D9D9" fill-opacity="0.5"/>
<rect x="103.061" y="327.11" width="0.608326" height="7.09713" transform="rotate(45 103.061 327.11)" fill="#D9D9D9" fill-opacity="0.5"/>
<rect x="58.4351" y="282.17" width="0.608326" height="7.09713" transform="rotate(45 58.4351 282.17)" fill="#D9D9D9" fill-opacity="0.5"/>
<rect x="58.8647" y="292.061" width="0.608326" height="7.09713" transform="rotate(135 58.8647 292.061)" fill="#D9D9D9" fill-opacity="0.5"/>
<rect x="138.54" y="292.491" width="0.608326" height="7.09713" transform="rotate(-135 138.54 292.491)" fill="#D9D9D9" fill-opacity="0.5"/>
<rect x="138.109" y="282.6" width="0.608326" height="7.09713" transform="rotate(-45 138.109 282.6)" fill="#D9D9D9" fill-opacity="0.5"/>
<g filter="url(#filter0_d_80_152)">
<rect width="43.7869" height="43.7869" rx="21.8934" transform="matrix(-1 0 0 1 102.787 285)" fill="url(#paint1_radial_80_152)"/>
<rect x="-0.931497" y="0.931497" width="41.9239" height="41.9239" rx="20.9619" transform="matrix(-1 0 0 1 100.924 285)" stroke="#DBDBDB" stroke-width="1.86299"/>
<path d="M79.3266 299.709C78.183 299.849 77.2389 300.049 76.214 300.383C73.3172 301.322 70.4797 303.08 67.7879 305.6C66.914 306.42 66.8115 306.56 66.8115 306.959C66.8115 307.358 66.914 307.498 67.7879 308.318C69.0556 309.505 70.005 310.26 71.3428 311.14C73.8081 312.758 76.1007 313.702 78.5983 314.117C79.4506 314.258 81.7918 314.258 82.6441 314.117C84.3272 313.837 85.9779 313.292 87.6016 312.478C89.6515 311.453 91.5557 310.099 93.4545 308.318C94.3284 307.498 94.4309 307.358 94.4309 306.959C94.4309 306.56 94.3284 306.42 93.4545 305.6C90.7627 303.08 87.9253 301.322 85.0285 300.383C83.4371 299.865 82.5524 299.725 80.837 299.704C80.1088 299.693 79.4291 299.698 79.3266 299.709ZM81.9968 301.494C83.5828 301.937 84.8666 302.956 85.5949 304.348C85.8862 304.915 86.0264 305.314 86.1505 305.929C86.2746 306.527 86.2368 307.779 86.0804 308.335C85.6434 309.915 84.6239 311.204 83.2321 311.933C82.2557 312.44 81.5491 312.596 80.4108 312.553C79.0676 312.504 78.0211 312.105 77.0016 311.253C76.036 310.444 75.3509 309.279 75.092 307.989C74.9679 307.391 75.0056 306.139 75.1621 305.583C75.7501 303.447 77.3684 301.915 79.5423 301.43C80.0494 301.316 81.4897 301.354 81.9968 301.494Z" fill="#AFADAD"/>
<path d="M79.5961 303.021C79.3749 303.081 78.9865 303.232 78.733 303.356C78.3607 303.539 78.1773 303.679 77.762 304.1C77.3412 304.515 77.2009 304.699 77.0175 305.071C76.6993 305.708 76.5752 306.247 76.5752 306.959C76.5752 307.671 76.6993 308.211 77.0175 308.847C77.2009 309.219 77.3412 309.403 77.762 309.818C78.1773 310.239 78.3607 310.379 78.733 310.563C79.4342 310.913 79.9521 311.021 80.7774 310.994C81.36 310.973 81.5273 310.946 81.9319 310.805C82.5144 310.6 82.9028 310.368 83.3452 309.964C83.7606 309.592 83.9979 309.268 84.2514 308.766C84.4349 308.41 84.656 307.687 84.6021 307.633C84.5913 307.623 84.4834 307.633 84.3701 307.666C84.2514 307.698 83.944 307.714 83.6904 307.704C83.2805 307.682 83.1672 307.655 82.8165 307.482C82.3256 307.24 81.9211 306.824 81.6783 306.312C81.5219 305.983 81.5111 305.923 81.5111 305.341C81.5111 304.758 81.5219 304.699 81.6837 304.359C81.7808 304.149 81.975 303.873 82.153 303.69C82.3202 303.517 82.4551 303.372 82.4551 303.361C82.4551 303.329 82.1045 303.172 81.7916 303.07C81.2845 302.903 80.1409 302.876 79.5961 303.021Z" fill="#AFADAD"/>
</g>
<defs>
<filter id="filter0_d_80_152" x="45" y="271" width="71.7871" height="71.7869" filterUnits="userSpaceOnUse" color-interpolation-filters="sRGB">
<feFlood flood-opacity="0" result="BackgroundImageFix"/>
<feColorMatrix in="SourceAlpha" type="matrix" values="0 0 0 0 0 0 0 0 0 0 0 0 0 0 0 0 0 0 127 0" result="hardAlpha"/>
<feOffset/>
<feGaussianBlur stdDeviation="7"/>
<feComposite in2="hardAlpha" operator="out"/>
<feColorMatrix type="matrix" values="0 0 0 0 1 0 0 0 0 1 0 0 0 0 1 0 0 0 0.4 0"/>
<feBlend mode="normal" in2="BackgroundImageFix" result="effect1_dropShadow_80_152"/>
<feBlend mode="normal" in="SourceGraphic" in2="effect1_dropShadow_80_152" result="shape"/>
</filter>
<radialGradient id="paint0_radial_80_152" cx="0" cy="0" r="1" gradientUnits="userSpaceOnUse" gradientTransform="translate(21.8934 21.8934) rotate(90) scale(21.8934)">
<stop stop-color="white"/>
<stop offset="1" stop-color="#A8A8A8"/>
</radialGradient>
<radialGradient id="paint1_radial_80_152" cx="0" cy="0" r="1" gradientUnits="userSpaceOnUse" gradientTransform="translate(21.8934 21.8934) rotate(90) scale(21.8934)">
<stop stop-color="white"/>
<stop offset="1" stop-color="#A8A8A8"/>
</radialGradient>
</defs>
</svg>
