<svg width="95" height="176" viewBox="0 0 95 176" fill="none" xmlns="http://www.w3.org/2000/svg">
<rect x="0.5" y="0.5" width="93.3096" height="174.619" rx="4.5" stroke="#8A38F5" stroke-dasharray="10 5"/>
<rect x="20" y="20" width="54.3096" height="54.3096" rx="27.1548" fill="black" fill-opacity="0.25"/>
<path d="M42.7832 32.7888C41.0815 33.1651 39.6923 34.2474 38.9341 35.7987C38.581 36.5164 38.4189 37.1646 38.3726 38.0387L38.3379 38.7216H39.2466H40.1496V38.2991C40.1496 37.7029 40.2827 37.1473 40.5605 36.5801C40.8904 35.9086 41.6024 35.1909 42.2333 34.8841C43.3214 34.3516 44.5312 34.3401 45.5557 34.8494C46.9274 35.5324 47.732 36.8637 47.732 38.467V38.7216H48.6291H49.5263V38.4438C49.5263 38.0213 49.4163 37.1646 49.3121 36.7826C49.2022 36.3543 48.7912 35.4687 48.5365 35.0925C48.2645 34.6931 47.5873 34.0043 47.1821 33.7149C46.5338 33.2577 45.6888 32.8988 44.9305 32.7657C44.4617 32.6789 43.2115 32.6962 42.7832 32.7888Z" fill="white"/>
<path d="M43.4143 36.5857C42.9223 36.7247 42.3725 37.2861 42.2336 37.7839C42.1988 37.9228 42.1757 39.6592 42.1757 42.6285V47.259L41.7589 47.3574C40.6939 47.6179 39.8952 48.3472 39.5595 49.3659C39.4437 49.7247 39.4321 49.881 39.409 51.8895L39.3916 54.0311L41.3596 56.491L43.3333 58.9452V60.6411V62.337H48.34H53.3467V60.6353V58.9336L54.7069 56.8152L56.0729 54.6967L56.0556 50.8071L56.0382 46.9117L55.8761 46.5818C55.4767 45.7715 54.5333 45.401 53.6709 45.7252C53.2715 45.8757 52.8721 46.2403 52.71 46.6107L52.5943 46.8538V46.3792C52.5943 45.5399 52.2586 44.9611 51.5929 44.6486C51.2225 44.4807 50.6205 44.4576 50.1864 44.6081C49.8218 44.7296 49.3471 45.1984 49.2198 45.5515L49.133 45.812L49.1272 45.3721C49.1214 44.8106 48.9999 44.4634 48.6815 44.1103C48.3342 43.7225 47.9464 43.5604 47.385 43.5604C46.702 43.5546 46.1463 43.8788 45.8511 44.446L45.7122 44.7122L45.7064 41.442C45.7064 37.8533 45.6948 37.7376 45.3649 37.2514C44.9655 36.6726 44.1147 36.3832 43.4143 36.5857Z" fill="white"/>
<g filter="url(#filter0_d_80_155)">
<rect width="54.3096" height="54.3096" rx="27.1548" transform="matrix(-1 0 0 1 74.3096 101.31)" fill="url(#paint0_radial_80_155)" fill-opacity="0.5" shape-rendering="crispEdges"/>
<path d="M42.7832 114.099C41.0815 114.475 39.6923 115.557 38.9341 117.108C38.581 117.826 38.4189 118.474 38.3726 119.348L38.3379 120.031H39.2466H40.1496V119.609C40.1496 119.013 40.2827 118.457 40.5605 117.89C40.8904 117.218 41.6024 116.501 42.2333 116.194C43.3214 115.661 44.5312 115.65 45.5557 116.159C46.9274 116.842 47.732 118.173 47.732 119.777V120.031H48.6291H49.5263V119.754C49.5263 119.331 49.4163 118.474 49.3121 118.092C49.2022 117.664 48.7912 116.778 48.5365 116.402C48.2645 116.003 47.5873 115.314 47.1821 115.025C46.5338 114.567 45.6888 114.209 44.9305 114.075C44.4617 113.989 43.2115 114.006 42.7832 114.099Z" fill="white"/>
<path d="M43.4143 117.895C42.9223 118.034 42.3725 118.596 42.2336 119.094C42.1988 119.232 42.1757 120.969 42.1757 123.938V128.569L41.7589 128.667C40.6939 128.928 39.8952 129.657 39.5595 130.676C39.4437 131.034 39.4321 131.191 39.409 133.199L39.3916 135.341L41.3596 137.801L43.3333 140.255V141.951V143.647H48.34H53.3467V141.945V140.243L54.7069 138.125L56.0729 136.006L56.0556 132.117L56.0382 128.221L55.8761 127.891C55.4767 127.081 54.5333 126.711 53.6709 127.035C53.2715 127.185 52.8721 127.55 52.71 127.92L52.5943 128.164V127.689C52.5943 126.85 52.2586 126.271 51.5929 125.958C51.2225 125.79 50.6205 125.767 50.1864 125.918C49.8218 126.039 49.3471 126.508 49.2198 126.861L49.133 127.122L49.1272 126.682C49.1214 126.12 48.9999 125.773 48.6815 125.42C48.3342 125.032 47.9464 124.87 47.385 124.87C46.702 124.864 46.1463 125.188 45.8511 125.756L45.7122 126.022L45.7064 122.752C45.7064 119.163 45.6948 119.047 45.3649 118.561C44.9655 117.982 44.1147 117.693 43.4143 117.895Z" fill="white"/>
</g>
<defs>
<filter id="filter0_d_80_155" x="12" y="93.3096" width="70.3096" height="70.3096" filterUnits="userSpaceOnUse" color-interpolation-filters="sRGB">
<feFlood flood-opacity="0" result="BackgroundImageFix"/>
<feColorMatrix in="SourceAlpha" type="matrix" values="0 0 0 0 0 0 0 0 0 0 0 0 0 0 0 0 0 0 127 0" result="hardAlpha"/>
<feOffset/>
<feGaussianBlur stdDeviation="4"/>
<feComposite in2="hardAlpha" operator="out"/>
<feColorMatrix type="matrix" values="0 0 0 0 0 0 0 0 0 0 0 0 0 0 0 0 0 0 0.8 0"/>
<feBlend mode="normal" in2="BackgroundImageFix" result="effect1_dropShadow_80_155"/>
<feBlend mode="normal" in="SourceGraphic" in2="effect1_dropShadow_80_155" result="shape"/>
</filter>
<radialGradient id="paint0_radial_80_155" cx="0" cy="0" r="1" gradientUnits="userSpaceOnUse" gradientTransform="translate(27.1548 27.1548) rotate(90) scale(27.1548)">
<stop stop-color="#585858"/>
<stop offset="1"/>
</radialGradient>
</defs>
</svg>
