<svg width="95" height="176" viewBox="0 0 95 176" fill="none" xmlns="http://www.w3.org/2000/svg">
<rect x="0.5" y="0.5" width="93.3096" height="174.619" rx="4.5" stroke="#8A38F5" stroke-dasharray="10 5"/>
<rect x="20" y="20" width="54.3096" height="54.3096" rx="27.1548" fill="black" fill-opacity="0.25"/>
<path d="M47.0201 32.8165C46.0825 33.1175 45.3705 33.8699 45.0811 34.8713C44.9422 35.3459 44.9827 36.3646 45.1564 36.845C45.932 38.9692 48.5598 39.5886 50.0763 38.0084C50.6666 37.3949 50.9213 36.735 50.9155 35.8321C50.904 34.4256 50.0357 33.2159 48.7682 32.8223C48.2877 32.6718 47.4716 32.6718 47.0201 32.8165Z" fill="white"/>
<path d="M45.863 39.0504C45.8167 39.0619 44.5028 39.2414 42.94 39.4497C38.8652 39.9938 39.0504 39.9649 38.7842 40.1559C38.3674 40.4453 38.3211 40.5958 37.8696 43.2988C37.4124 46.0424 37.395 46.3086 37.6555 46.7022C37.8812 47.0379 38.2401 47.1942 38.7089 47.1653C39.172 47.1363 39.4903 46.9453 39.6582 46.5865C39.7276 46.4476 39.9707 45.4925 40.2022 44.4564L40.6306 42.5753L42.2165 42.5348C43.6114 42.5001 44.196 42.4538 44.7633 42.338C44.9022 42.3091 44.9022 42.3091 44.7922 42.3785C44.7285 42.4248 44.4565 42.5406 44.1845 42.639L43.6983 42.8242L43.5709 43.7792C43.4031 45.0295 43.1947 46.0424 42.8474 47.3216C42.6853 47.8946 42.5349 48.4734 42.5059 48.6007C42.4712 48.7454 42.4712 49.9841 42.5001 51.8131L42.5522 54.7882L41.1341 57.4507C39.4093 60.6747 39.3803 60.7326 39.3803 61.0741C39.3803 61.4503 39.6292 61.9192 39.9476 62.1391C40.1791 62.2954 40.2428 62.3127 40.6827 62.3127C41.1226 62.3127 41.1862 62.3012 41.412 62.1391C41.5972 62.006 42.1702 61.2362 43.7561 58.9846C44.9138 57.3466 45.8862 55.9343 45.9209 55.8416C45.9788 55.6622 46.3434 51.6453 46.3145 51.4485C46.3029 51.3559 46.1987 51.3038 45.8109 51.188C45.209 51.0202 45.0295 50.916 45.4 50.9681C45.6836 51.0028 49.3938 51.1706 49.9321 51.1706H50.2678L50.2272 53.4454C50.1809 55.9574 50.1983 56.1484 50.5051 56.5189C51.0144 57.1324 51.9984 57.1382 52.5078 56.5189C52.6062 56.4031 52.7103 56.2005 52.7451 56.0674C52.8319 55.7375 53.7348 49.6542 53.7348 49.3821C53.7348 48.8091 53.2371 48.103 52.7161 47.9351C52.5888 47.8946 51.518 47.7267 50.343 47.5589L48.2014 47.2637L48.3635 46.1639C48.4677 45.4752 48.5429 44.6532 48.5718 43.9645L48.6124 42.8647L48.7165 43.2583C48.7686 43.4725 48.8323 43.7966 48.8497 43.9818L48.8844 44.3117L49.9089 44.989C50.4703 45.3594 50.9913 45.6951 51.0723 45.7356C51.2865 45.8456 51.8711 45.8282 52.1142 45.7067C52.3341 45.5909 52.5135 45.4288 54.6262 43.3856C55.4771 42.5695 56.1022 41.9213 56.1485 41.8113C56.189 41.7071 56.2237 41.4814 56.2237 41.3135C56.2237 40.6421 55.7491 40.1675 55.0719 40.1675C54.5973 40.1617 54.5278 40.208 53.0345 41.4756C52.3573 42.0486 51.7495 42.5637 51.6801 42.6158C51.5585 42.7142 51.518 42.6795 49.6195 41.0415C48.5545 40.1212 47.5821 39.3166 47.449 39.2529C47.0669 39.0619 46.245 38.9578 45.863 39.0504Z" fill="white"/>
<g filter="url(#filter0_d_80_160)">
<rect width="54.3096" height="54.3096" rx="27.1548" transform="matrix(-1 0 0 1 74.3096 101.31)" fill="url(#paint0_radial_80_160)" fill-opacity="0.5" shape-rendering="crispEdges"/>
<path d="M47.0201 114.126C46.0825 114.427 45.3705 115.18 45.0811 116.181C44.9422 116.656 44.9827 117.674 45.1564 118.155C45.932 120.279 48.5598 120.898 50.0763 119.318C50.6666 118.705 50.9213 118.045 50.9155 117.142C50.904 115.735 50.0357 114.526 48.7682 114.132C48.2877 113.982 47.4716 113.982 47.0201 114.126Z" fill="white"/>
<path d="M45.863 120.36C45.8167 120.372 44.5028 120.551 42.94 120.76C38.8652 121.304 39.0504 121.275 38.7842 121.466C38.3674 121.755 38.3211 121.906 37.8696 124.609C37.4124 127.352 37.395 127.618 37.6555 128.012C37.8812 128.348 38.2401 128.504 38.7089 128.475C39.172 128.446 39.4903 128.255 39.6582 127.896C39.7276 127.757 39.9707 126.802 40.2022 125.766L40.6306 123.885L42.2165 123.845C43.6114 123.81 44.196 123.764 44.7633 123.648C44.9022 123.619 44.9022 123.619 44.7922 123.688C44.7285 123.735 44.4565 123.85 44.1845 123.949L43.6983 124.134L43.5709 125.089C43.4031 126.339 43.1947 127.352 42.8474 128.631C42.6853 129.204 42.5349 129.783 42.5059 129.911C42.4712 130.055 42.4712 131.294 42.5001 133.123L42.5522 136.098L41.1341 138.761C39.4093 141.985 39.3803 142.042 39.3803 142.384C39.3803 142.76 39.6292 143.229 39.9476 143.449C40.1791 143.605 40.2428 143.623 40.6827 143.623C41.1226 143.623 41.1862 143.611 41.412 143.449C41.5972 143.316 42.1702 142.546 43.7561 140.294C44.9138 138.656 45.8862 137.244 45.9209 137.151C45.9788 136.972 46.3434 132.955 46.3145 132.758C46.3029 132.666 46.1987 132.614 45.8109 132.498C45.209 132.33 45.0295 132.226 45.4 132.278C45.6836 132.313 49.3938 132.48 49.9321 132.48H50.2678L50.2272 134.755C50.1809 137.267 50.1983 137.458 50.5051 137.829C51.0144 138.442 51.9984 138.448 52.5078 137.829C52.6062 137.713 52.7103 137.51 52.7451 137.377C52.8319 137.047 53.7348 130.964 53.7348 130.692C53.7348 130.119 53.2371 129.413 52.7161 129.245C52.5888 129.204 51.518 129.037 50.343 128.869L48.2014 128.573L48.3635 127.474C48.4677 126.785 48.5429 125.963 48.5718 125.274L48.6124 124.175L48.7165 124.568C48.7686 124.782 48.8323 125.106 48.8497 125.292L48.8844 125.622L49.9089 126.299C50.4703 126.669 50.9913 127.005 51.0723 127.045C51.2865 127.155 51.8711 127.138 52.1142 127.016C52.3341 126.901 52.5135 126.739 54.6262 124.695C55.4771 123.879 56.1022 123.231 56.1485 123.121C56.189 123.017 56.2237 122.791 56.2237 122.623C56.2237 121.952 55.7491 121.477 55.0719 121.477C54.5973 121.471 54.5278 121.518 53.0345 122.785C52.3573 123.358 51.7495 123.874 51.6801 123.926C51.5585 124.024 51.518 123.989 49.6195 122.351C48.5545 121.431 47.5821 120.626 47.449 120.563C47.0669 120.372 46.245 120.268 45.863 120.36Z" fill="white"/>
</g>
<defs>
<filter id="filter0_d_80_160" x="12" y="93.3096" width="70.3096" height="70.3096" filterUnits="userSpaceOnUse" color-interpolation-filters="sRGB">
<feFlood flood-opacity="0" result="BackgroundImageFix"/>
<feColorMatrix in="SourceAlpha" type="matrix" values="0 0 0 0 0 0 0 0 0 0 0 0 0 0 0 0 0 0 127 0" result="hardAlpha"/>
<feOffset/>
<feGaussianBlur stdDeviation="4"/>
<feComposite in2="hardAlpha" operator="out"/>
<feColorMatrix type="matrix" values="0 0 0 0 0 0 0 0 0 0 0 0 0 0 0 0 0 0 0.8 0"/>
<feBlend mode="normal" in2="BackgroundImageFix" result="effect1_dropShadow_80_160"/>
<feBlend mode="normal" in="SourceGraphic" in2="effect1_dropShadow_80_160" result="shape"/>
</filter>
<radialGradient id="paint0_radial_80_160" cx="0" cy="0" r="1" gradientUnits="userSpaceOnUse" gradientTransform="translate(27.1548 27.1548) rotate(90) scale(27.1548)">
<stop stop-color="#585858"/>
<stop offset="1"/>
</radialGradient>
</defs>
</svg>
