<svg width="111" height="124" viewBox="0 0 111 124" fill="none" xmlns="http://www.w3.org/2000/svg">
<rect x="0.5" y="0.5" width="110" height="123" rx="4.5" stroke="#8A38F5" stroke-dasharray="10 5"/>
<rect x="20.5" y="20.5" width="70" height="32" rx="7.5" fill="#003131"/>
<rect x="20.5" y="20.5" width="70" height="32" rx="7.5" stroke="#37FFFF"/>
<rect x="20.5" y="20.5" width="34" height="32" rx="7.5" fill="#37FFFF"/>
<rect x="20.5" y="20.5" width="34" height="32" rx="7.5" stroke="#003131"/>
<rect x="32" y="31" width="2" height="12" rx="1" fill="#003131" fill-opacity="0.5"/>
<rect x="35" y="31" width="2" height="12" rx="1" fill="#003131" fill-opacity="0.5"/>
<rect x="38" y="31" width="2" height="12" rx="1" fill="#003131" fill-opacity="0.5"/>
<rect x="41" y="31" width="2" height="12" rx="1" fill="#003131" fill-opacity="0.5"/>
<rect x="20.5" y="71.5" width="70" height="32" rx="7.5" fill="#0DAFAF"/>
<rect x="20.5" y="71.5" width="70" height="32" rx="7.5" stroke="#37FFFF"/>
<rect x="56.5" y="71.5" width="34" height="32" rx="7.5" fill="#37FFFF"/>
<rect x="56.5" y="71.5" width="34" height="32" rx="7.5" stroke="#003131"/>
<rect x="68" y="82" width="2" height="12" rx="1" fill="#003131" fill-opacity="0.5"/>
<rect x="71" y="82" width="2" height="12" rx="1" fill="#003131" fill-opacity="0.5"/>
<rect x="74" y="82" width="2" height="12" rx="1" fill="#003131" fill-opacity="0.5"/>
<rect x="77" y="82" width="2" height="12" rx="1" fill="#003131" fill-opacity="0.5"/>
</svg>
